<svg width="21" height="21" viewBox="0 0 21 21" fill="none" xmlns="http://www.w3.org/2000/svg">
<path d="M6.67132 10.0514C6.67132 8.20885 8.16414 6.71481 10.0061 6.71481C11.8481 6.71481 13.3417 8.20885 13.3417 10.0514C13.3417 11.8939 11.8481 13.3879 10.0061 13.3879C8.16414 13.3879 6.67132 11.8939 6.67132 10.0514ZM4.86816 10.0514C4.86816 12.8899 7.16842 15.1908 10.0061 15.1908C12.8438 15.1908 15.1441 12.8899 15.1441 10.0514C15.1441 7.21285 12.8438 4.91193 10.0061 4.91193C7.16842 4.91193 4.86816 7.21285 4.86816 10.0514ZM14.1468 4.70814C14.1467 4.94569 14.217 5.17793 14.3489 5.3755C14.4807 5.57307 14.6682 5.72709 14.8875 5.81808C15.1069 5.90908 15.3483 5.93296 15.5813 5.88671C15.8142 5.84046 16.0282 5.72615 16.1962 5.55825C16.3642 5.39034 16.4786 5.17638 16.525 4.94341C16.5715 4.71045 16.5478 4.46894 16.457 4.24944C16.3662 4.02994 16.2124 3.84229 16.015 3.71024C15.8176 3.57819 15.5854 3.50765 15.348 3.50756H15.3475C15.0292 3.50771 14.7239 3.63423 14.4988 3.85934C14.2736 4.08444 14.147 4.38973 14.1468 4.70814ZM5.9637 18.1984C4.98815 18.1539 4.45792 17.9914 4.10554 17.8541C3.63838 17.6721 3.30506 17.4555 2.95461 17.1054C2.60416 16.7553 2.38723 16.4222 2.20617 15.9549C2.0688 15.6026 1.90631 15.0721 1.86196 14.0962C1.81345 13.0412 1.80376 12.7243 1.80376 10.0514C1.80376 7.3786 1.81425 7.06255 1.86196 6.00666C1.90639 5.03083 2.07008 4.50132 2.20617 4.14797C2.38803 3.68067 2.60464 3.34726 2.95461 2.9967C3.30458 2.64615 3.63758 2.42916 4.10554 2.24804C4.45776 2.11064 4.98815 1.94809 5.9637 1.90373C7.01841 1.85521 7.33524 1.84552 10.0061 1.84552C12.677 1.84552 12.9942 1.85601 14.0497 1.90373C15.0253 1.94817 15.5547 2.11192 15.9079 2.24804C16.3751 2.42916 16.7084 2.64663 17.0588 2.9967C17.4093 3.34678 17.6254 3.68067 17.8073 4.14797C17.9446 4.50028 18.1071 5.03083 18.1515 6.00666C18.2 7.06255 18.2097 7.3786 18.2097 10.0514C18.2097 12.7243 18.2 13.0403 18.1515 14.0962C18.1071 15.0721 17.9438 15.6025 17.8073 15.9549C17.6254 16.4222 17.4088 16.7556 17.0588 17.1054C16.7089 17.4551 16.3751 17.6721 15.9079 17.8541C15.5557 17.9915 15.0253 18.154 14.0497 18.1984C12.995 18.2469 12.6782 18.2566 10.0061 18.2566C7.33404 18.2566 7.01809 18.2469 5.9637 18.1984ZM5.88085 0.103094C4.81565 0.151617 4.08777 0.320567 3.45211 0.567987C2.7938 0.823494 2.2365 1.16628 1.67961 1.72245C1.12272 2.27863 0.78091 2.83696 0.525477 3.49547C0.278129 4.13171 0.109228 4.8594 0.0607184 5.9249C0.0114088 6.99209 0.00012207 7.33328 0.00012207 10.0514C0.00012207 12.7695 0.0114088 13.1106 0.0607184 14.1778C0.109228 15.2434 0.278129 15.971 0.525477 16.6073C0.78091 17.2654 1.1228 17.8244 1.67961 18.3803C2.23642 18.9362 2.7938 19.2785 3.45211 19.5348C4.08897 19.7822 4.81565 19.9511 5.88085 19.9996C6.94829 20.0482 7.28881 20.0603 10.0061 20.0603C12.7234 20.0603 13.0645 20.049 14.1314 19.9996C15.1967 19.9511 15.9241 19.7822 16.5601 19.5348C17.218 19.2785 17.7757 18.9365 18.3326 18.3803C18.8895 17.8241 19.2306 17.2654 19.4868 16.6073C19.7341 15.971 19.9038 15.2433 19.9515 14.1778C20 13.1098 20.0113 12.7695 20.0113 10.0514C20.0113 7.33328 20 6.99209 19.9515 5.9249C19.903 4.85932 19.7341 4.13131 19.4868 3.49547C19.2306 2.83736 18.8886 2.27951 18.3326 1.72245C17.7766 1.1654 17.218 0.823494 16.5609 0.567987C15.9241 0.320567 15.1966 0.150817 14.1322 0.103094C13.0653 0.0545712 12.7242 0.0424805 10.0069 0.0424805C7.28961 0.0424805 6.94829 0.0537705 5.88085 0.103094Z" fill="#0A0D12"/>
</svg>
