<svg width="18" height="17" viewBox="0 0 18 17" fill="none" xmlns="http://www.w3.org/2000/svg">
<path d="M9.00002 14.275L4.85002 16.775C4.66669 16.8917 4.47502 16.9417 4.27502 16.925C4.07502 16.9083 3.90002 16.8417 3.75002 16.725C3.60002 16.6083 3.48336 16.4627 3.40002 16.288C3.31669 16.1133 3.30002 15.9173 3.35002 15.7L4.45002 10.975L0.775024 7.80001C0.608357 7.65001 0.504357 7.47901 0.463024 7.28701C0.42169 7.09501 0.434024 6.90768 0.500024 6.72501C0.566024 6.54235 0.666024 6.39235 0.800024 6.27501C0.934024 6.15768 1.11736 6.08268 1.35002 6.05001L6.20002 5.62501L8.07502 1.17501C8.15836 0.975012 8.28769 0.825012 8.46302 0.725012C8.63836 0.625012 8.81736 0.575012 9.00002 0.575012C9.18269 0.575012 9.36169 0.625012 9.53702 0.725012C9.71236 0.825012 9.84169 0.975012 9.92502 1.17501L11.8 5.62501L16.65 6.05001C16.8834 6.08335 17.0667 6.15835 17.2 6.27501C17.3334 6.39168 17.4334 6.54168 17.5 6.72501C17.5667 6.90835 17.5794 7.09601 17.538 7.28801C17.4967 7.48001 17.3924 7.65068 17.225 7.80001L13.55 10.975L14.65 15.7C14.7 15.9167 14.6834 16.1127 14.6 16.288C14.5167 16.4633 14.4 16.609 14.25 16.725C14.1 16.841 13.925 16.9077 13.725 16.925C13.525 16.9423 13.3334 16.8923 13.15 16.775L9.00002 14.275Z" fill="#FFAB0D"/>
</svg>
