<svg width="18" height="20" viewBox="0 0 18 20" fill="none" xmlns="http://www.w3.org/2000/svg">
<path d="M15.2759 4.25239C15.1433 4.18381 15.0141 4.10863 14.8889 4.02713C14.5249 3.7865 14.1912 3.50296 13.8949 3.18262C13.1536 2.33442 12.8767 1.47394 12.7748 0.871476H12.7789C12.6937 0.371404 12.7289 0.0478516 12.7342 0.0478516H9.35781V13.1038C9.35781 13.2791 9.35781 13.4523 9.35044 13.6235C9.35044 13.6448 9.34839 13.6645 9.34717 13.6874C9.34717 13.6968 9.34717 13.7067 9.34512 13.7165C9.34512 13.7189 9.34512 13.7214 9.34512 13.7239C9.30953 14.1923 9.15936 14.6448 8.90784 15.0416C8.65631 15.4384 8.31112 15.7673 7.90265 15.9994C7.47693 16.2416 6.99543 16.3686 6.50564 16.368C4.93253 16.368 3.65757 15.0852 3.65757 13.5011C3.65757 11.9169 4.93253 10.6341 6.50564 10.6341C6.80343 10.6339 7.09938 10.6807 7.38251 10.773L7.38661 7.33514C6.52709 7.22412 5.65389 7.29243 4.8221 7.53576C3.9903 7.7791 3.21796 8.19218 2.5538 8.74894C1.97185 9.25458 1.48259 9.85791 1.10806 10.5318C0.965533 10.7775 0.427782 11.7649 0.362662 13.3675C0.321706 14.2772 0.594882 15.2196 0.725122 15.6091V15.6173C0.807034 15.8466 1.12444 16.6293 1.64172 17.2891C2.05883 17.8183 2.55163 18.2833 3.10425 18.6689V18.6607L3.11244 18.6689C4.74699 19.7796 6.5593 19.7067 6.5593 19.7067C6.87302 19.694 7.92395 19.7067 9.1174 19.1411C10.4411 18.5141 11.1947 17.5799 11.1947 17.5799C11.6761 17.0217 12.0589 16.3855 12.3267 15.6988C12.6322 14.8956 12.7342 13.9323 12.7342 13.5473V6.62087C12.7752 6.64544 13.3207 7.00627 13.3207 7.00627C13.3207 7.00627 14.1067 7.51003 15.3329 7.83808C16.2126 8.07153 17.3979 8.12068 17.3979 8.12068V4.76884C16.9826 4.8139 16.1393 4.68284 15.2759 4.25239Z" fill="#0A0D12"/>
</svg>
